<?xml version="1.0" encoding="UTF-8" standalone="no"?>
<svg
   xmlns:dc="http://purl.org/dc/elements/1.1/"
   xmlns:cc="http://creativecommons.org/ns#"
   xmlns:rdf="http://www.w3.org/1999/02/22-rdf-syntax-ns#"
   xmlns:svg="http://www.w3.org/2000/svg"
   xmlns="http://www.w3.org/2000/svg"
   id="svg8"
   version="1.1"
   viewBox="0 0 128 128"
   height="128mm"
   width="128mm">
  <defs
     id="defs2" />
  <metadata
     id="metadata5">
    <rdf:RDF>
      <cc:Work
         rdf:about="">
        <dc:format>image/svg+xml</dc:format>
        <dc:type
           rdf:resource="http://purl.org/dc/dcmitype/StillImage" />
        <dc:title></dc:title>
      </cc:Work>
    </rdf:RDF>
  </metadata>
  <g
     id="layer2" />
  <g
     transform="translate(0,-169)"
     id="layer1">
    <path
       d="m 47.182171,175.20621 h 10.541992 v 0.73381 H 47.182171 Z"
       style="font-style:normal;font-variant:normal;font-weight:normal;font-stretch:normal;font-size:medium;line-height:1.25;font-family:Monapo;-inkscape-font-specification:Monapo;letter-spacing:0px;word-spacing:0px;fill:#000000;fill-opacity:1;stroke:#000000;stroke-width:0.80000001;stroke-miterlimit:4;stroke-dasharray:none;stroke-opacity:1"
       id="path924" />
    <path
       d="m 72.317589,175.20621 h 10.541992 v 0.73381 H 72.317589 Z"
       style="font-style:normal;font-variant:normal;font-weight:normal;font-stretch:normal;font-size:medium;line-height:1.25;font-family:Monapo;-inkscape-font-specification:Monapo;letter-spacing:0px;word-spacing:0px;fill:#000000;fill-opacity:1;stroke:#000000;stroke-width:0.80000001;stroke-miterlimit:4;stroke-dasharray:none;stroke-opacity:1"
       id="path926" />
    <path
       d="m 45.259809,179.44368 0.578776,0.21704 -4.69222,8.88835 -0.589111,-0.1757 z"
       style="font-style:normal;font-variant:normal;font-weight:normal;font-stretch:normal;font-size:medium;line-height:1.25;font-family:Monapo;-inkscape-font-specification:Monapo;letter-spacing:0px;word-spacing:0px;fill:#000000;fill-opacity:1;stroke:#000000;stroke-width:0.80000001;stroke-miterlimit:4;stroke-dasharray:none;stroke-opacity:1"
       id="path928" />
    <path
       d="m 53.517702,184.03255 q 0,-1.55029 0.888834,-2.72852 0.888835,-1.17822 2.294434,-1.17822 1.405599,0 2.304769,1.17822 0.89917,1.17823 0.89917,2.73885 0,1.64331 -0.89917,2.82154 -0.89917,1.17822 -2.304769,1.17822 -1.405599,0 -2.294434,-1.17822 -0.888834,-1.17823 -0.888834,-2.83187 z m 1.198893,0.0103 q 0,1.51929 0.599447,2.34611 0.599446,0.81649 1.384928,0.81649 0.795817,0 1.405599,-0.81649 0.599447,-0.82682 0.599447,-2.35644 0,-1.47795 -0.599447,-2.27376 -0.609782,-0.79582 -1.405599,-0.79582 -0.785482,0 -1.384928,0.79582 -0.599447,0.79581 -0.599447,2.28409 z"
       style="font-style:normal;font-variant:normal;font-weight:normal;font-stretch:normal;font-size:medium;line-height:1.25;font-family:Monapo;-inkscape-font-specification:Monapo;letter-spacing:0px;word-spacing:0px;fill:#000000;fill-opacity:1;stroke:#000000;stroke-width:0.80000001;stroke-miterlimit:4;stroke-dasharray:none;stroke-opacity:1"
       id="path930" />
    <path
       d="m 69.682088,180.10514 -2.211751,7.87549 H 67.335978 66.47815 66.343791 l -2.211751,-7.87549 h 0.992187 l 1.736328,6.1805 h 0.09302 l 1.736328,-6.1805 z"
       style="font-style:normal;font-variant:normal;font-weight:normal;font-stretch:normal;font-size:medium;line-height:1.25;font-family:Monapo;-inkscape-font-specification:Monapo;letter-spacing:0px;word-spacing:0px;fill:#000000;fill-opacity:1;stroke:#000000;stroke-width:0.80000001;stroke-miterlimit:4;stroke-dasharray:none;stroke-opacity:1"
       id="path932" />
    <path
       d="m 74.022909,184.03255 q 0,-1.55029 0.888835,-2.72852 0.888834,-1.17822 2.294433,-1.17822 1.405599,0 2.304769,1.17822 0.89917,1.17823 0.89917,2.73885 0,1.64331 -0.89917,2.82154 -0.89917,1.17822 -2.304769,1.17822 -1.405599,0 -2.294433,-1.17822 -0.888835,-1.17823 -0.888835,-2.83187 z m 1.198893,0.0103 q 0,1.51929 0.599447,2.34611 0.599446,0.81649 1.384928,0.81649 0.795817,0 1.405599,-0.81649 0.599447,-0.82682 0.599447,-2.35644 0,-1.47795 -0.599447,-2.27376 -0.609782,-0.79582 -1.405599,-0.79582 -0.785482,0 -1.384928,0.79582 -0.599447,0.79581 -0.599447,2.28409 z"
       style="font-style:normal;font-variant:normal;font-weight:normal;font-stretch:normal;font-size:medium;line-height:1.25;font-family:Monapo;-inkscape-font-specification:Monapo;letter-spacing:0px;word-spacing:0px;fill:#000000;fill-opacity:1;stroke:#000000;stroke-width:0.80000001;stroke-miterlimit:4;stroke-dasharray:none;stroke-opacity:1"
       id="path934" />
    <path
       d="m 86.394249,182.71997 q 1.260905,1.07487 1.901693,1.76733 0.651123,0.69247 1.229899,1.44694 0.578776,0.75448 1.064534,1.50895 -0.537434,0.38241 -0.878499,0.73381 -0.475423,-0.97152 -0.981852,-1.73633 -0.506429,-0.77515 -1.79834,-2.08773 l -1.116211,-0.79581 z"
       style="font-style:normal;font-variant:normal;font-weight:normal;font-stretch:normal;font-size:medium;line-height:1.25;font-family:Monapo;-inkscape-font-specification:Monapo;letter-spacing:0px;word-spacing:0px;fill:#000000;fill-opacity:1;stroke:#000000;stroke-width:0.80000001;stroke-miterlimit:4;stroke-dasharray:none;stroke-opacity:1"
       id="path936" />
    <path
       d="m 41.580447,202.49137 v -10.43864 h 0.744141 v 10.43864 z"
       style="font-style:normal;font-variant:normal;font-weight:normal;font-stretch:normal;font-size:medium;line-height:1.25;font-family:Monapo;-inkscape-font-specification:Monapo;letter-spacing:0px;word-spacing:0px;fill:#000000;fill-opacity:1;stroke:#000000;stroke-width:0.80000001;stroke-miterlimit:4;stroke-dasharray:none;stroke-opacity:1"
       id="path938" />
    <path
       d="m 66.054404,202.49137 v -10.43864 h 0.744141 v 10.43864 z"
       style="font-style:normal;font-variant:normal;font-weight:normal;font-stretch:normal;font-size:medium;line-height:1.25;font-family:Monapo;-inkscape-font-specification:Monapo;letter-spacing:0px;word-spacing:0px;fill:#000000;fill-opacity:1;stroke:#000000;stroke-width:0.80000001;stroke-miterlimit:4;stroke-dasharray:none;stroke-opacity:1"
       id="path940" />
    <path
       d="m 90.528361,202.49137 v -10.43864 h 0.744141 v 10.43864 z"
       style="font-style:normal;font-variant:normal;font-weight:normal;font-stretch:normal;font-size:medium;line-height:1.25;font-family:Monapo;-inkscape-font-specification:Monapo;letter-spacing:0px;word-spacing:0px;fill:#000000;fill-opacity:1;stroke:#000000;stroke-width:0.80000001;stroke-miterlimit:4;stroke-dasharray:none;stroke-opacity:1"
       id="path942" />
    <path
       d="m 20.599815,208.87858 q 3.513998,-0.88884 5.550049,-3.18327 l 0.713135,0.49609 q -2.356445,2.38745 -5.725749,3.34863 z m 0.785482,5.20898 q 4.34082,-0.93018 6.449219,-3.70003 l 0.764811,0.41341 q -2.418457,2.9869 -6.676595,4.05143 z m 0.186035,-2.79053 q 3.265951,-0.80615 5.229655,-2.97656 l 0.692464,0.43408 q -2.108398,2.31511 -5.374349,3.24528 z"
       style="font-style:normal;font-variant:normal;font-weight:normal;font-stretch:normal;font-size:medium;line-height:1.25;font-family:Monapo;-inkscape-font-specification:Monapo;letter-spacing:0px;word-spacing:0px;fill:#000000;fill-opacity:1;stroke:#000000;stroke-width:0.80000001;stroke-miterlimit:4;stroke-dasharray:none;stroke-opacity:1"
       id="path944" />
    <path
       d="m 31.183148,208.87858 q 3.513998,-0.88884 5.550049,-3.18327 l 0.713135,0.49609 q -2.356445,2.38745 -5.725749,3.34863 z m 0.785482,5.20898 q 4.34082,-0.93018 6.449219,-3.70003 l 0.764811,0.41341 q -2.418457,2.9869 -6.676595,4.05143 z m 0.186035,-2.79053 q 3.265951,-0.80615 5.229655,-2.97656 l 0.692464,0.43408 q -2.108398,2.31511 -5.374348,3.24528 z"
       style="font-style:normal;font-variant:normal;font-weight:normal;font-stretch:normal;font-size:medium;line-height:1.25;font-family:Monapo;-inkscape-font-specification:Monapo;letter-spacing:0px;word-spacing:0px;fill:#000000;fill-opacity:1;stroke:#000000;stroke-width:0.80000001;stroke-miterlimit:4;stroke-dasharray:none;stroke-opacity:1"
       id="path946" />
    <path
       d="m 41.642459,205.73665 8.960693,9.08472 -0.630452,0.51676 -8.929688,-9.07438 z"
       style="font-style:normal;font-variant:normal;font-weight:normal;font-stretch:normal;font-size:medium;line-height:1.25;font-family:Monapo;-inkscape-font-specification:Monapo;letter-spacing:0px;word-spacing:0px;fill:#000000;fill-opacity:1;stroke:#000000;stroke-width:0.80000001;stroke-miterlimit:4;stroke-dasharray:none;stroke-opacity:1"
       id="path948" />
    <path
       d="m 51.150921,214.89371 h 10.541992 v 0.73381 H 51.150921 Z"
       style="font-style:normal;font-variant:normal;font-weight:normal;font-stretch:normal;font-size:medium;line-height:1.25;font-family:Monapo;-inkscape-font-specification:Monapo;letter-spacing:0px;word-spacing:0px;fill:#000000;fill-opacity:1;stroke:#000000;stroke-width:0.80000001;stroke-miterlimit:4;stroke-dasharray:none;stroke-opacity:1"
       id="path950" />
    <path
       id="path952"
       transform="matrix(0.26458333,0,0,0.26458333,0,169)"
       d="M 251.60742 139.51172 L 251.60742 142.28516 C 251.60742 149.26433 250.5918 154.81119 248.56055 158.92578 C 246.11263 163.97785 241.95898 167.88412 236.09961 170.64453 L 238.48242 173.30078 C 246.81576 168.71745 251.81576 161.77735 253.48242 152.48047 C 254.1595 155.42318 255.0319 157.80599 256.09961 159.62891 C 259.0944 164.94141 263.27409 169.23827 268.63867 172.51953 L 270.98242 169.55078 C 265.33138 166.58204 261.2168 162.85807 258.63867 158.37891 C 256.08659 153.89974 254.81055 148.48307 254.81055 142.12891 L 254.81055 139.51172 L 251.60742 139.51172 z M 273.32617 173.45703 L 273.32617 176.23047 L 313.16992 176.23047 L 313.16992 173.45703 L 273.32617 173.45703 z "
       style="font-style:normal;font-variant:normal;font-weight:normal;font-stretch:normal;font-size:medium;line-height:1.25;font-family:Monapo;-inkscape-font-specification:Monapo;letter-spacing:0px;word-spacing:0px;fill:#000000;fill-opacity:1;stroke:#000000;stroke-width:3.02362204;stroke-miterlimit:4;stroke-dasharray:none;stroke-opacity:1" />
    <path
       d="m 88.605995,206.95621 q -0.01033,-0.1757 0.186036,-0.12402 l 1.09554,0.23771 q 0.155029,0.0724 0.02067,0.20671 l -0.165364,0.1757 q -0.165365,0.98185 -0.795817,2.48047 -0.630453,1.48828 -1.736328,2.67683 -1.095541,1.18856 -3.524333,2.27377 -0.1757,-0.55811 -0.558105,-1.0232 v -0.0827 q 1.912028,-0.44442 3.09025,-1.57096 1.188558,-1.12655 1.767334,-2.56315 0.578776,-1.44694 0.640788,-2.00505 0.06201,-0.5581 -0.02067,-0.68213 z"
       style="font-style:normal;font-variant:normal;font-weight:normal;font-stretch:normal;font-size:medium;line-height:1.25;font-family:Monapo;-inkscape-font-specification:Monapo;letter-spacing:0px;word-spacing:0px;fill:#000000;fill-opacity:1;stroke:#000000;stroke-width:0.80000001;stroke-miterlimit:4;stroke-dasharray:none;stroke-opacity:1"
       id="path956" />
    <path
       d="m 13.323774,222.10774 q 3.513997,-0.88883 5.550049,-3.18327 l 0.713134,0.4961 q -2.356445,2.38745 -5.725748,3.34863 z m 0.785482,5.20899 q 4.34082,-0.93018 6.449218,-3.70004 l 0.764811,0.41342 q -2.418457,2.98689 -6.676594,4.05143 z m 0.186035,-2.79053 q 3.26595,-0.80615 5.229655,-2.97656 l 0.692464,0.43408 q -2.108399,2.3151 -5.374349,3.24528 z"
       style="font-style:normal;font-variant:normal;font-weight:normal;font-stretch:normal;font-size:medium;line-height:1.25;font-family:Monapo;-inkscape-font-specification:Monapo;letter-spacing:0px;word-spacing:0px;fill:#000000;fill-opacity:1;stroke:#000000;stroke-width:0.80000001;stroke-miterlimit:4;stroke-dasharray:none;stroke-opacity:1"
       id="path958" />
    <path
       d="m 23.907107,222.10774 q 3.513998,-0.88883 5.550049,-3.18327 l 0.713135,0.4961 q -2.356445,2.38745 -5.725749,3.34863 z m 0.785482,5.20899 q 4.34082,-0.93018 6.449219,-3.70004 l 0.764811,0.41342 q -2.418457,2.98689 -6.676595,4.05143 z m 0.186035,-2.79053 q 3.265951,-0.80615 5.229655,-2.97656 l 0.692464,0.43408 q -2.108398,2.3151 -5.374349,3.24528 z"
       style="font-style:normal;font-variant:normal;font-weight:normal;font-stretch:normal;font-size:medium;line-height:1.25;font-family:Monapo;-inkscape-font-specification:Monapo;letter-spacing:0px;word-spacing:0px;fill:#000000;fill-opacity:1;stroke:#000000;stroke-width:0.80000001;stroke-miterlimit:4;stroke-dasharray:none;stroke-opacity:1"
       id="path960" />
    <path
       d="m 95.654663,222.40747 q 1.260905,1.07487 1.901693,1.76733 0.651123,0.69246 1.229899,1.44694 0.578776,0.75448 1.064532,1.50895 -0.537432,0.38241 -0.878497,0.73381 -0.475423,-0.97152 -0.981852,-1.73633 -0.506429,-0.77515 -1.79834,-2.08773 l -1.116211,-0.79582 z"
       style="font-style:normal;font-variant:normal;font-weight:normal;font-stretch:normal;font-size:medium;line-height:1.25;font-family:Monapo;-inkscape-font-specification:Monapo;letter-spacing:0px;word-spacing:0px;fill:#000000;fill-opacity:1;stroke:#000000;stroke-width:0.80000001;stroke-miterlimit:4;stroke-dasharray:none;stroke-opacity:1"
       id="path962" />
    <path
       d="m 6.0477325,235.33691 q 3.5139976,-0.88884 5.5500485,-3.18327 l 0.713135,0.49609 q -2.3564449,2.38746 -5.7257486,3.34864 z m 0.7854818,5.20898 q 4.3408197,-0.93017 6.4492187,-3.70003 l 0.764811,0.41341 q -2.418457,2.9869 -6.6765949,4.05143 z m 0.1860351,-2.79052 Q 10.2852,236.94921 12.248904,234.7788 l 0.692464,0.43409 q -2.108398,2.3151 -5.3743484,3.24528 z"
       style="font-style:normal;font-variant:normal;font-weight:normal;font-stretch:normal;font-size:medium;line-height:1.25;font-family:Monapo;-inkscape-font-specification:Monapo;letter-spacing:0px;word-spacing:0px;fill:#000000;fill-opacity:1;stroke:#000000;stroke-width:0.80000001;stroke-miterlimit:4;stroke-dasharray:none;stroke-opacity:1"
       id="path964" />
    <path
       d="m 16.631065,235.33691 q 3.513998,-0.88884 5.550049,-3.18327 l 0.713135,0.49609 q -2.356445,2.38746 -5.725749,3.34864 z m 0.785482,5.20898 q 4.34082,-0.93017 6.449219,-3.70003 l 0.764811,0.41341 q -2.418457,2.9869 -6.676595,4.05143 z m 0.186035,-2.79052 q 3.265951,-0.80616 5.229655,-2.97657 l 0.692464,0.43409 q -2.108398,2.3151 -5.374349,3.24528 z"
       style="font-style:normal;font-variant:normal;font-weight:normal;font-stretch:normal;font-size:medium;line-height:1.25;font-family:Monapo;-inkscape-font-specification:Monapo;letter-spacing:0px;word-spacing:0px;fill:#000000;fill-opacity:1;stroke:#000000;stroke-width:0.80000001;stroke-miterlimit:4;stroke-dasharray:none;stroke-opacity:1"
       id="path966" />
    <path
       d="m 104.481,232.19498 8.96069,9.08472 -0.63045,0.51676 -8.92969,-9.07438 z"
       style="font-style:normal;font-variant:normal;font-weight:normal;font-stretch:normal;font-size:medium;line-height:1.25;font-family:Monapo;-inkscape-font-specification:Monapo;letter-spacing:0px;word-spacing:0px;fill:#000000;fill-opacity:1;stroke:#000000;stroke-width:0.80000001;stroke-miterlimit:4;stroke-dasharray:none;stroke-opacity:1"
       id="path970" />
    <path
       d="m 113.98947,241.35205 h 10.54199 v 0.7338 h -10.54199 z"
       style="font-style:normal;font-variant:normal;font-weight:normal;font-stretch:normal;font-size:medium;line-height:1.25;font-family:Monapo;-inkscape-font-specification:Monapo;letter-spacing:0px;word-spacing:0px;fill:#000000;fill-opacity:1;stroke:#000000;stroke-width:0.80000001;stroke-miterlimit:4;stroke-dasharray:none;stroke-opacity:1"
       id="path972" />
    <path
       d="m 6.0477325,248.56608 q 3.5139976,-0.88884 5.5500485,-3.18327 l 0.713135,0.49609 q -2.3564449,2.38745 -5.7257486,3.34863 z m 0.7854818,5.20898 q 4.3408197,-0.93018 6.4492187,-3.70003 l 0.764811,0.41341 q -2.418457,2.9869 -6.6765949,4.05143 z m 0.1860351,-2.79053 q 3.2659506,-0.80615 5.2296546,-2.97656 l 0.692464,0.43408 q -2.108398,2.31511 -5.3743484,3.24528 z"
       style="font-style:normal;font-variant:normal;font-weight:normal;font-stretch:normal;font-size:medium;line-height:1.25;font-family:Monapo;-inkscape-font-specification:Monapo;letter-spacing:0px;word-spacing:0px;fill:#000000;fill-opacity:1;stroke:#000000;stroke-width:0.80000001;stroke-miterlimit:4;stroke-dasharray:none;stroke-opacity:1"
       id="path974" />
    <path
       d="m 16.631065,248.56608 q 3.513998,-0.88884 5.550049,-3.18327 l 0.713135,0.49609 q -2.356445,2.38745 -5.725749,3.34863 z m 0.785482,5.20898 q 4.34082,-0.93018 6.449219,-3.70003 l 0.764811,0.41341 q -2.418457,2.9869 -6.676595,4.05143 z m 0.186035,-2.79053 q 3.265951,-0.80615 5.229655,-2.97656 l 0.692464,0.43408 q -2.108398,2.31511 -5.374349,3.24528 z"
       style="font-style:normal;font-variant:normal;font-weight:normal;font-stretch:normal;font-size:medium;line-height:1.25;font-family:Monapo;-inkscape-font-specification:Monapo;letter-spacing:0px;word-spacing:0px;fill:#000000;fill-opacity:1;stroke:#000000;stroke-width:0.80000001;stroke-miterlimit:4;stroke-dasharray:none;stroke-opacity:1"
       id="path976" />
    <path
       d="m 123.41525,245.42415 0.59944,0.5271 -8.92968,9.07438 -0.63045,-0.51677 z"
       style="font-style:normal;font-variant:normal;font-weight:normal;font-stretch:normal;font-size:medium;line-height:1.25;font-family:Monapo;-inkscape-font-specification:Monapo;letter-spacing:0px;word-spacing:0px;fill:#000000;fill-opacity:1;stroke:#000000;stroke-width:0.80000001;stroke-miterlimit:4;stroke-dasharray:none;stroke-opacity:1"
       id="path978" />
    <path
       d="m 6.0477325,261.79524 q 3.5139976,-0.88883 5.5500485,-3.18327 l 0.713135,0.4961 q -2.3564449,2.38745 -5.7257486,3.34863 z m 0.7854818,5.20899 q 4.3408197,-0.93018 6.4492187,-3.70004 l 0.764811,0.41341 q -2.418457,2.9869 -6.6765949,4.05144 z m 0.1860351,-2.79053 q 3.2659506,-0.80615 5.2296546,-2.97656 l 0.692464,0.43408 q -2.108398,2.3151 -5.3743484,3.24528 z"
       style="font-style:normal;font-variant:normal;font-weight:normal;font-stretch:normal;font-size:medium;line-height:1.25;font-family:Monapo;-inkscape-font-specification:Monapo;letter-spacing:0px;word-spacing:0px;fill:#000000;fill-opacity:1;stroke:#000000;stroke-width:0.80000001;stroke-miterlimit:4;stroke-dasharray:none;stroke-opacity:1"
       id="path980" />
    <path
       d="m 16.631065,261.79524 q 3.513998,-0.88883 5.550049,-3.18327 l 0.713135,0.4961 q -2.356445,2.38745 -5.725749,3.34863 z m 0.785482,5.20899 q 4.34082,-0.93018 6.449219,-3.70004 l 0.764811,0.41341 q -2.418457,2.9869 -6.676595,4.05144 z m 0.186035,-2.79053 q 3.265951,-0.80615 5.229655,-2.97656 l 0.692464,0.43408 q -2.108398,2.3151 -5.374349,3.24528 z"
       style="font-style:normal;font-variant:normal;font-weight:normal;font-stretch:normal;font-size:medium;line-height:1.25;font-family:Monapo;-inkscape-font-specification:Monapo;letter-spacing:0px;word-spacing:0px;fill:#000000;fill-opacity:1;stroke:#000000;stroke-width:0.80000001;stroke-miterlimit:4;stroke-dasharray:none;stroke-opacity:1"
       id="path982" />
    <path
       d="m 100.63627,259.07706 0.38241,0.51677 -7.699791,7.55509 h 7.792811 v 0.66146 h -8.857346 q -0.485758,0 -0.144694,-0.36174 z"
       style="font-style:normal;font-variant:normal;font-weight:normal;font-stretch:normal;font-size:medium;line-height:1.25;font-family:Monapo;-inkscape-font-specification:Monapo;letter-spacing:0px;word-spacing:0px;fill:#000000;fill-opacity:1;stroke:#000000;stroke-width:0.80000001;stroke-miterlimit:4;stroke-dasharray:none;stroke-opacity:1"
       id="path984" />
    <path
       d="m 103.72653,260.06925 h 7.28637 v 0.81649 h -7.28637 z m -0.79582,5.73608 h 8.87801 v 0.82683 h -8.87801 z"
       style="font-style:normal;font-variant:normal;font-weight:normal;font-stretch:normal;font-size:medium;line-height:1.25;font-family:Monapo;-inkscape-font-specification:Monapo;letter-spacing:0px;word-spacing:0px;fill:#000000;fill-opacity:1;stroke:#000000;stroke-width:0.80000001;stroke-miterlimit:4;stroke-dasharray:none;stroke-opacity:1"
       id="path986" />
    <path
       d="m 13.323774,275.02441 q 3.513997,-0.88884 5.550049,-3.18327 l 0.713134,0.49609 q -2.356445,2.38745 -5.725748,3.34864 z m 0.785482,5.20898 q 4.34082,-0.93017 6.449218,-3.70003 l 0.764811,0.41341 q -2.418457,2.9869 -6.676594,4.05143 z m 0.186035,-2.79053 q 3.26595,-0.80615 5.229655,-2.97656 l 0.692464,0.43408 q -2.108399,2.31511 -5.374349,3.24528 z"
       style="font-style:normal;font-variant:normal;font-weight:normal;font-stretch:normal;font-size:medium;line-height:1.25;font-family:Monapo;-inkscape-font-specification:Monapo;letter-spacing:0px;word-spacing:0px;fill:#000000;fill-opacity:1;stroke:#000000;stroke-width:0.80000001;stroke-miterlimit:4;stroke-dasharray:none;stroke-opacity:1"
       id="path988" />
    <path
       d="m 24.506554,274.95206 q 1.508952,1.28158 2.191081,1.97404 0.682129,0.69246 1.012858,1.17822 0.330729,0.48576 0.444417,0.82683 0.113688,0.33073 0.07235,0.60978 -0.04134,0.26872 -0.227376,0.49609 -0.186035,0.21704 -0.506429,0.31006 -0.320394,0.093 -2.511475,0.19637 -0.04134,-0.65112 -0.144694,-1.12655 1.260905,0.1447 1.694987,0.12403 0.434082,-0.031 0.54777,-0.13436 0.113688,-0.11369 0.08268,-0.31006 -0.03101,-0.19637 -0.289388,-0.58911 -0.258383,-0.40308 -1.539958,-1.64331 l -1.405599,-1.07487 z m 2.583822,-0.13436 q 0.620117,0.58911 1.11621,1.29191 l -0.578776,0.44442 q -0.434082,-0.71313 -1.012858,-1.2299 z m 1.033528,-0.67179 q 0.72347,0.62012 1.178223,1.18856 l -0.558106,0.48575 q -0.454752,-0.72347 -1.09554,-1.18855 z"
       style="font-style:normal;font-variant:normal;font-weight:normal;font-stretch:normal;font-size:medium;line-height:1.25;font-family:Monapo;-inkscape-font-specification:Monapo;letter-spacing:0px;word-spacing:0px;fill:#000000;fill-opacity:1;stroke:#000000;stroke-width:0.80000001;stroke-miterlimit:4;stroke-dasharray:none;stroke-opacity:1"
       id="path990" />
    <path
       d="m 59.088421,281.03954 h 10.541992 v 0.73381 H 59.088421 Z"
       style="font-style:normal;font-variant:normal;font-weight:normal;font-stretch:normal;font-size:medium;line-height:1.25;font-family:Monapo;-inkscape-font-specification:Monapo;letter-spacing:0px;word-spacing:0px;fill:#000000;fill-opacity:1;stroke:#000000;stroke-width:0.80000001;stroke-miterlimit:4;stroke-dasharray:none;stroke-opacity:1"
       id="path992" />
    <path
       d="m 69.671753,281.03954 h 10.541992 v 0.73381 H 69.671753 Z"
       style="font-style:normal;font-variant:normal;font-weight:normal;font-stretch:normal;font-size:medium;line-height:1.25;font-family:Monapo;-inkscape-font-specification:Monapo;letter-spacing:0px;word-spacing:0px;fill:#000000;fill-opacity:1;stroke:#000000;stroke-width:0.80000001;stroke-miterlimit:4;stroke-dasharray:none;stroke-opacity:1"
       id="path994" />
    <path
       d="m 80.255089,281.03954 h 10.541992 v 0.73381 H 80.255089 Z"
       style="font-style:normal;font-variant:normal;font-weight:normal;font-stretch:normal;font-size:medium;line-height:1.25;font-family:Monapo;-inkscape-font-specification:Monapo;letter-spacing:0px;word-spacing:0px;fill:#000000;fill-opacity:1;stroke:#000000;stroke-width:0.80000001;stroke-miterlimit:4;stroke-dasharray:none;stroke-opacity:1"
       id="path996" />
    <path
       d="m 90.838417,281.03954 h 10.541993 v 0.73381 H 90.838417 Z"
       style="font-style:normal;font-variant:normal;font-weight:normal;font-stretch:normal;font-size:medium;line-height:1.25;font-family:Monapo;-inkscape-font-specification:Monapo;letter-spacing:0px;word-spacing:0px;fill:#000000;fill-opacity:1;stroke:#000000;stroke-width:0.80000001;stroke-miterlimit:4;stroke-dasharray:none;stroke-opacity:1"
       id="path998" />
    <path
       d="m 110.84754,271.88248 0.59944,0.5271 -8.92968,9.07438 -0.63046,-0.51676 z"
       style="font-style:normal;font-variant:normal;font-weight:normal;font-stretch:normal;font-size:medium;line-height:1.25;font-family:Monapo;-inkscape-font-specification:Monapo;letter-spacing:0px;word-spacing:0px;fill:#000000;fill-opacity:1;stroke:#000000;stroke-width:0.80000001;stroke-miterlimit:4;stroke-dasharray:none;stroke-opacity:1"
       id="path1000" />
    <path
       d="m 28.826703,285.11165 0.599447,0.5271 -8.929687,9.07438 -0.630453,-0.51677 z"
       style="font-style:normal;font-variant:normal;font-weight:normal;font-stretch:normal;font-size:medium;line-height:1.25;font-family:Monapo;-inkscape-font-specification:Monapo;letter-spacing:0px;word-spacing:0px;fill:#000000;fill-opacity:1;stroke:#000000;stroke-width:0.80000001;stroke-miterlimit:4;stroke-dasharray:none;stroke-opacity:1"
       id="path1002" />
    <path
       d="m 81.991412,285.11165 8.960693,9.08471 -0.630452,0.51677 -8.929687,-9.07438 z"
       style="font-style:normal;font-variant:normal;font-weight:normal;font-stretch:normal;font-size:medium;line-height:1.25;font-family:Monapo;-inkscape-font-specification:Monapo;letter-spacing:0px;word-spacing:0px;fill:#000000;fill-opacity:1;stroke:#000000;stroke-width:0.80000001;stroke-miterlimit:4;stroke-dasharray:none;stroke-opacity:1"
       id="path1004" />
  </g>
</svg>
