<?xml version="1.0" encoding="UTF-8" standalone="no"?>
<svg
   xmlns:dc="http://purl.org/dc/elements/1.1/"
   xmlns:cc="http://creativecommons.org/ns#"
   xmlns:rdf="http://www.w3.org/1999/02/22-rdf-syntax-ns#"
   xmlns:svg="http://www.w3.org/2000/svg"
   xmlns="http://www.w3.org/2000/svg"
   xmlns:sodipodi="http://sodipodi.sourceforge.net/DTD/sodipodi-0.dtd"
   xmlns:inkscape="http://www.inkscape.org/namespaces/inkscape"
   viewBox="0 0 50 50"
   width="50px"
   height="50px"
   version="1.1"
   id="svg4"
   sodipodi:docname="facebook.svg"
   inkscape:version="0.92.2 5c3e80d, 2017-08-06">
  <metadata
     id="metadata10">
    <rdf:RDF>
      <cc:Work
         rdf:about="">
        <dc:format>image/svg+xml</dc:format>
        <dc:type
           rdf:resource="http://purl.org/dc/dcmitype/StillImage" />
      </cc:Work>
    </rdf:RDF>
  </metadata>
  <defs
     id="defs8" />
  <sodipodi:namedview
     pagecolor="#ffffff"
     bordercolor="#666666"
     borderopacity="1"
     objecttolerance="10"
     gridtolerance="10"
     guidetolerance="10"
     inkscape:pageopacity="0"
     inkscape:pageshadow="2"
     inkscape:window-width="1366"
     inkscape:window-height="693"
     id="namedview6"
     showgrid="false"
     inkscape:zoom="4.72"
     inkscape:cx="-21.398305"
     inkscape:cy="25"
     inkscape:window-x="0"
     inkscape:window-y="0"
     inkscape:window-maximized="1"
     inkscape:current-layer="svg4" />
  <path
     d="M 44.047619,0 H 5.952381 C 2.6666667,0 0,2.6666667 0,5.952381 V 44.047619 C 0,47.333333 2.6666667,50 5.952381,50 H 44.047619 C 47.333333,50 50,47.333333 50,44.047619 V 5.952381 C 50,2.6666667 47.333333,0 44.047619,0 Z m -4.761905,17.857143 h -2.380952 c -2.547619,0 -3.571429,0.595238 -3.571429,2.380952 v 3.571429 h 5.952381 l -1.190476,5.952381 H 33.333333 V 47.619048 H 27.380952 V 29.761905 h -4.761904 v -5.952381 h 4.761904 v -3.571429 c 0,-4.761905 2.380953,-8.333333 7.142858,-8.333333 3.45238,0 4.761904,1.190476 4.761904,1.190476 z"
     id="path2"
     style="fill:#ffffff;fill-opacity:1;stroke-width:1.19047618"
     inkscape:connector-curvature="0" />
</svg>
