<?xml version="1.0" encoding="UTF-8" standalone="no"?>
<svg
   xmlns:dc="http://purl.org/dc/elements/1.1/"
   xmlns:cc="http://creativecommons.org/ns#"
   xmlns:rdf="http://www.w3.org/1999/02/22-rdf-syntax-ns#"
   xmlns:svg="http://www.w3.org/2000/svg"
   xmlns="http://www.w3.org/2000/svg"
   xmlns:sodipodi="http://sodipodi.sourceforge.net/DTD/sodipodi-0.dtd"
   xmlns:inkscape="http://www.inkscape.org/namespaces/inkscape"
   viewBox="0 0 50 50"
   version="1.1"
   width="50px"
   height="50px"
   id="svg5"
   sodipodi:docname="gplus.svg"
   inkscape:version="0.92.2 5c3e80d, 2017-08-06">
  <metadata
     id="metadata11">
    <rdf:RDF>
      <cc:Work
         rdf:about="">
        <dc:format>image/svg+xml</dc:format>
        <dc:type
           rdf:resource="http://purl.org/dc/dcmitype/StillImage" />
      </cc:Work>
    </rdf:RDF>
  </metadata>
  <defs
     id="defs9" />
  <sodipodi:namedview
     pagecolor="#ffffff"
     bordercolor="#666666"
     borderopacity="1"
     objecttolerance="10"
     gridtolerance="10"
     guidetolerance="10"
     inkscape:pageopacity="0"
     inkscape:pageshadow="2"
     inkscape:window-width="1366"
     inkscape:window-height="693"
     id="namedview7"
     showgrid="false"
     inkscape:zoom="4.72"
     inkscape:cx="-67.79661"
     inkscape:cy="25"
     inkscape:window-x="0"
     inkscape:window-y="0"
     inkscape:window-maximized="1"
     inkscape:current-layer="svg5" />
  <g
     id="surface1"
     transform="matrix(1.1428571,0,0,1.1428571,-3.5714285,-4.4907703)"
     style="fill:#e8e8e8;fill-opacity:1">
    <path
       d="M 17.1875,10.9375 C 9.421875,10.9375 3.125,17.234375 3.125,25 c 0,7.765625 6.296875,14.0625 14.0625,14.0625 7.765625,0 14.0625,-6.296875 14.0625,-14.0625 0,-0.964844 -0.105469,-1.90625 -0.289062,-2.8125 L 30.882813,21.875 H 17.1875 v 4.6875 h 9.375 c -0.746094,4.433594 -4.730469,7.8125 -9.375,7.8125 -5.179687,0 -9.375,-4.195312 -9.375,-9.375 0,-5.179687 4.195313,-9.375 9.375,-9.375 2.34375,0 4.480469,0.867188 6.125,2.289063 L 26.671875,14.625 c -2.5,-2.289062 -5.828125,-3.6875 -9.484375,-3.6875 z m 21.875,6.25 V 21.875 H 34.375 V 25 h 4.6875 v 4.6875 h 3.125 V 25 h 4.6875 v -3.125 h -4.6875 v -4.6875 z"
       id="path2"
       inkscape:connector-curvature="0"
       style="fill:#e8e8e8;fill-opacity:1" />
  </g>
</svg>
