<?xml version="1.0" encoding="UTF-8" standalone="no"?>
<svg
   xmlns:dc="http://purl.org/dc/elements/1.1/"
   xmlns:cc="http://creativecommons.org/ns#"
   xmlns:rdf="http://www.w3.org/1999/02/22-rdf-syntax-ns#"
   xmlns:svg="http://www.w3.org/2000/svg"
   xmlns="http://www.w3.org/2000/svg"
   xmlns:sodipodi="http://sodipodi.sourceforge.net/DTD/sodipodi-0.dtd"
   xmlns:inkscape="http://www.inkscape.org/namespaces/inkscape"
   viewBox="0 0 50 50"
   width="50px"
   height="50px"
   version="1.1"
   id="svg4"
   sodipodi:docname="hatena.svg"
   inkscape:version="0.92.2 5c3e80d, 2017-08-06">
  <metadata
     id="metadata10">
    <rdf:RDF>
      <cc:Work
         rdf:about="">
        <dc:format>image/svg+xml</dc:format>
        <dc:type
           rdf:resource="http://purl.org/dc/dcmitype/StillImage" />
      </cc:Work>
    </rdf:RDF>
  </metadata>
  <defs
     id="defs8" />
  <sodipodi:namedview
     pagecolor="#ffffff"
     bordercolor="#666666"
     borderopacity="1"
     objecttolerance="10"
     gridtolerance="10"
     guidetolerance="10"
     inkscape:pageopacity="0"
     inkscape:pageshadow="2"
     inkscape:window-width="1366"
     inkscape:window-height="693"
     id="namedview6"
     showgrid="false"
     inkscape:zoom="2.36"
     inkscape:cx="-57.675495"
     inkscape:cy="-9.7331559"
     inkscape:window-x="0"
     inkscape:window-y="0"
     inkscape:window-maximized="1"
     inkscape:current-layer="svg4" />
  <path
     d="M 5.952381,0 C 2.6666666,0 0,2.6666666 0,5.952381 V 44.047619 C 0,47.333334 2.6666666,50 5.952381,50 H 44.047619 C 47.333334,50 50,47.333334 50,44.047619 V 5.952381 C 50,2.6666666 47.333334,0 44.047619,0 Z m 7.070777,14.285714 h 10.156251 c 3.095238,0 5.594308,2.250559 5.594308,5.036273 0,2.261905 -1.678665,4.154203 -3.964379,4.785156 2.809524,0.476191 4.952567,2.868861 4.952567,5.761719 0,3.22619 -2.678013,5.845424 -5.975633,5.845424 H 13.023158 Z m 19.047619,0 h 4.833985 V 28.571429 H 32.070777 Z M 18.10826,18.987166 v 4.345702 h 2.866908 c 1.238096,0 2.250743,-0.976003 2.250743,-2.190289 0,-1.119048 -0.880301,-2.036366 -2.011254,-2.155413 z m 0,8.156621 v 4.773531 h 3.571428 c 1.357143,0 2.450706,-1.071428 2.450706,-2.380952 0,-1.321429 -1.093563,-2.392579 -2.450706,-2.392579 z m 16.380672,3.808594 c 1.333334,0 2.41583,1.071429 2.41583,2.380952 0,1.309524 -1.082496,2.380953 -2.41583,2.380953 -1.333333,0 -2.418155,-1.071429 -2.418155,-2.380953 0,-1.309523 1.084822,-2.380952 2.418155,-2.380952 z"
     id="path2"
     style="fill:#e8e8e8;fill-opacity:1;stroke-width:1.19047618"
     inkscape:connector-curvature="0" />
</svg>
