<?xml version="1.0" encoding="UTF-8" standalone="no"?>
<svg
   xmlns:dc="http://purl.org/dc/elements/1.1/"
   xmlns:cc="http://creativecommons.org/ns#"
   xmlns:rdf="http://www.w3.org/1999/02/22-rdf-syntax-ns#"
   xmlns:svg="http://www.w3.org/2000/svg"
   xmlns="http://www.w3.org/2000/svg"
   xmlns:sodipodi="http://sodipodi.sourceforge.net/DTD/sodipodi-0.dtd"
   xmlns:inkscape="http://www.inkscape.org/namespaces/inkscape"
   viewBox="0 0 50 50"
   version="1.1"
   width="50px"
   height="50px"
   id="svg5"
   sodipodi:docname="twitter.svg"
   inkscape:version="0.92.2 5c3e80d, 2017-08-06">
  <metadata
     id="metadata11">
    <rdf:RDF>
      <cc:Work
         rdf:about="">
        <dc:format>image/svg+xml</dc:format>
        <dc:type
           rdf:resource="http://purl.org/dc/dcmitype/StillImage" />
      </cc:Work>
    </rdf:RDF>
  </metadata>
  <defs
     id="defs9" />
  <sodipodi:namedview
     pagecolor="#ffffff"
     bordercolor="#666666"
     borderopacity="1"
     objecttolerance="10"
     gridtolerance="10"
     guidetolerance="10"
     inkscape:pageopacity="0"
     inkscape:pageshadow="2"
     inkscape:window-width="1366"
     inkscape:window-height="693"
     id="namedview7"
     showgrid="false"
     inkscape:zoom="4.72"
     inkscape:cx="-33.898305"
     inkscape:cy="25"
     inkscape:window-x="0"
     inkscape:window-y="0"
     inkscape:window-maximized="1"
     inkscape:current-layer="svg5" />
  <g
     id="surface1"
     transform="matrix(0.99758398,0,0,0.99758398,0.05845224,-0.91964795)"
     style="fill-opacity:1;fill:#e8e8e8">
    <path
       d="m 50.0625,10.4375 c -1.847656,0.820313 -3.828125,1.371094 -5.910156,1.621094 2.125,-1.273438 3.757812,-3.289063 4.523437,-5.6875 -1.984375,1.175781 -4.191406,2.03125 -6.53125,2.492187 -1.875,-2 -4.546875,-3.246093 -7.503906,-3.246093 -5.679687,0 -10.285156,4.601562 -10.285156,10.28125 0,0.804687 0.09375,1.589843 0.269531,2.34375 C 16.078125,17.8125 8.503906,13.71875 3.429688,7.496094 2.542969,9.019531 2.039063,10.785156 2.039063,12.667969 c 0,3.566406 1.8125,6.714844 4.574218,8.5625 -1.6875,-0.05469 -3.273437,-0.519531 -4.660156,-1.289063 0,0.04297 0,0.08594 0,0.128907 0,4.984375 3.546875,9.136718 8.246094,10.085937 -0.859375,0.234375 -1.769531,0.359375 -2.707031,0.359375 -0.664063,0 -1.308594,-0.0625 -1.9375,-0.1875 1.3125,4.082031 5.109375,7.0625 9.605468,7.144531 -3.515625,2.757813 -7.949218,4.398438 -12.769531,4.398438 -0.832031,0 -1.648437,-0.04687 -2.4492188,-0.144531 4.5468748,2.921875 9.9531248,4.621093 15.7617188,4.621093 18.914063,0 29.257813,-15.667968 29.257813,-29.253906 0,-0.445312 -0.01172,-0.894531 -0.02734,-1.332031 C 46.941406,14.3125 48.683594,12.5 50.0625,10.4375 Z"
       id="path2"
       inkscape:connector-curvature="0"
       style="fill-opacity:1;fill:#e8e8e8" />
  </g>
</svg>
